<svg width="208" height="176" viewBox="0 0 208 176" fill="none" xmlns="http://www.w3.org/2000/svg">
<path d="M192 0H16C11.7565 0 7.68687 1.68571 4.68629 4.68629C1.68571 7.68687 0 11.7565 0 16V160C0 164.243 1.68571 168.313 4.68629 171.314C7.68687 174.314 11.7565 176 16 176H192C196.243 176 200.313 174.314 203.314 171.314C206.314 168.313 208 164.243 208 160V16C208 11.7565 206.314 7.68687 203.314 4.68629C200.313 1.68571 196.243 0 192 0ZM88 104C88 112.487 84.6286 120.626 78.6274 126.627C72.6263 132.629 64.4869 136 56 136C47.5131 136 39.3737 132.629 33.3726 126.627C27.3714 120.626 24 112.487 24 104V72C24.001 65.5198 25.9694 59.1926 29.6448 53.8555C33.3201 48.5184 38.5293 44.4229 44.583 42.1109C50.6367 39.7989 57.2498 39.3793 63.5472 40.9076C69.8446 42.436 75.5295 45.8402 79.85 50.67C80.5911 51.4456 81.1686 52.3624 81.5482 53.3658C81.9278 54.3691 82.1017 55.4386 82.0596 56.5105C82.0175 57.5825 81.7602 58.635 81.3031 59.6055C80.8459 60.576 80.1983 61.4446 79.3986 62.1598C78.599 62.8749 77.6637 63.4219 76.6484 63.7682C75.633 64.1145 74.5584 64.2531 73.4884 64.1757C72.4185 64.0982 71.375 63.8064 70.4201 63.3176C69.4652 62.8287 68.6184 62.1528 67.93 61.33C65.7699 58.9129 62.9265 57.209 59.7765 56.4439C56.6264 55.6788 53.3183 55.8885 50.2901 57.0454C47.2619 58.2022 44.6565 60.2516 42.8189 62.9221C40.9814 65.5927 39.9983 68.7584 40 72V104C40 108.243 41.6857 112.313 44.6863 115.314C47.6869 118.314 51.7565 120 56 120C60.2435 120 64.3131 118.314 67.3137 115.314C70.3143 112.313 72 108.243 72 104V96H64C61.8783 96 59.8434 95.1572 58.3431 93.6569C56.8429 92.1566 56 90.1217 56 88C56 85.8783 56.8429 83.8434 58.3431 82.3431C59.8434 80.8429 61.8783 80 64 80H80C82.1217 80 84.1566 80.8429 85.6569 82.3431C87.1571 83.8434 88 85.8783 88 88V104ZM120 128C120 130.122 119.157 132.157 117.657 133.657C116.157 135.157 114.122 136 112 136C109.878 136 107.843 135.157 106.343 133.657C104.843 132.157 104 130.122 104 128V48C104 45.8783 104.843 43.8434 106.343 42.3431C107.843 40.8429 109.878 40 112 40C114.122 40 116.157 40.8429 117.657 42.3431C119.157 43.8434 120 45.8783 120 48V128ZM180 56H152V80H172C174.122 80 176.157 80.8429 177.657 82.3431C179.157 83.8434 180 85.8783 180 88C180 90.1217 179.157 92.1566 177.657 93.6569C176.157 95.1572 174.122 96 172 96H152V128C152 130.122 151.157 132.157 149.657 133.657C148.157 135.157 146.122 136 144 136C141.878 136 139.843 135.157 138.343 133.657C136.843 132.157 136 130.122 136 128V48C136 45.8783 136.843 43.8434 138.343 42.3431C139.843 40.8429 141.878 40 144 40H180C182.122 40 184.157 40.8429 185.657 42.3431C187.157 43.8434 188 45.8783 188 48C188 50.1217 187.157 52.1566 185.657 53.6569C184.157 55.1571 182.122 56 180 56Z" fill="#00A3FF"/>
</svg>
