<svg width="22" height="22" viewBox="0 0 22 22" fill="none" xmlns="http://www.w3.org/2000/svg">
<path d="M2.44727 16.9868C2.44727 18.4407 3.55911 19.5526 5.01306 19.5526H16.9867C18.4407 19.5526 19.5525 18.4407 19.5525 16.9868V10.1447H2.44727V16.9868ZM16.9867 4.15785H15.2762V3.30259C15.2762 2.78943 14.9341 2.44733 14.421 2.44733C13.9078 2.44733 13.5657 2.78943 13.5657 3.30259V4.15785H8.43411V3.30259C8.43411 2.78943 8.092 2.44733 7.57885 2.44733C7.06569 2.44733 6.72358 2.78943 6.72358 3.30259V4.15785H5.01306C3.55911 4.15785 2.44727 5.2697 2.44727 6.72364V8.43417H19.5525V6.72364C19.5525 5.2697 18.4407 4.15785 16.9867 4.15785Z" fill="#13BFD9"/>
</svg>
