<svg width="60" height="60" viewBox="0 0 60 60" fill="none" xmlns="http://www.w3.org/2000/svg">
<path d="M42.725 7.04999C40.4257 5.15895 37.7333 3.80506 34.8441 3.0871C31.955 2.36914 28.942 2.30521 26.025 2.89999C22.1409 3.68454 18.5775 5.60517 15.7867 8.41819C12.9959 11.2312 11.1037 14.8098 10.35 18.7C9.79962 21.6168 9.89963 24.6191 10.6429 27.4928C11.3862 30.3665 12.7544 33.0408 14.65 35.325C16.4092 37.3102 17.4176 39.8488 17.5 42.5V50C17.5 51.9891 18.2902 53.8968 19.6967 55.3033C21.1032 56.7098 23.0109 57.5 25 57.5H35C36.9891 57.5 38.8968 56.7098 40.3033 55.3033C41.7098 53.8968 42.5 51.9891 42.5 50V42.975C42.5839 40.0479 43.6593 37.2361 45.55 35C48.8628 30.9019 50.4244 25.662 49.8954 20.4191C49.3665 15.1761 46.7896 10.3537 42.725 6.99999V7.04999ZM37.5 50C37.5 50.663 37.2366 51.2989 36.7678 51.7678C36.2989 52.2366 35.663 52.5 35 52.5H25C24.337 52.5 23.7011 52.2366 23.2322 51.7678C22.7634 51.2989 22.5 50.663 22.5 50V47.5H37.5V50ZM41.675 31.9C39.1613 34.8815 37.6947 38.6051 37.5 42.5H32.5V35C32.5 34.3369 32.2366 33.7011 31.7678 33.2322C31.2989 32.7634 30.663 32.5 30 32.5C29.337 32.5 28.7011 32.7634 28.2322 33.2322C27.7634 33.7011 27.5 34.3369 27.5 35V42.5H22.5C22.434 38.6702 21.0174 34.9869 18.5 32.1C16.8391 30.11 15.7222 27.7235 15.2583 25.1734C14.7943 22.6232 14.9991 19.9963 15.8527 17.5488C16.7063 15.1013 18.1796 12.9168 20.1288 11.2083C22.0781 9.49976 24.4368 8.32549 26.975 7.79999C29.1564 7.35085 31.4104 7.39309 33.5734 7.92366C35.7364 8.45423 37.7542 9.4598 39.4801 10.8674C41.2061 12.2749 42.5969 14.0492 43.5517 16.0613C44.5065 18.0734 45.0012 20.2728 45 22.5C45.0185 25.9246 43.8427 29.2487 41.675 31.9V31.9Z" fill="#13BFD9"/>
</svg>
