<svg width="60" height="60" viewBox="0 0 60 60" fill="none" xmlns="http://www.w3.org/2000/svg">
<path fill-rule="evenodd" clip-rule="evenodd" d="M47.268 23.3478C45.3921 18.4815 41.5185 14.6079 36.6522 12.732C35.8792 13.0887 35.1728 13.565 34.5568 14.1373C40.0059 15.6997 44.3003 19.9941 45.8627 25.4432C46.435 24.8272 46.9113 24.1208 47.268 23.3478ZM29.911 13.5002C20.8393 13.5481 13.5 20.917 13.5 30C13.5 39.1127 20.8873 46.5 30 46.5C39.083 46.5 46.4519 39.1607 46.4998 30.089C47.2009 29.6364 47.8518 29.1127 48.4423 28.5281C48.4805 29.0137 48.5 29.5046 48.5 30C48.5 40.2173 40.2173 48.5 30 48.5C19.7827 48.5 11.5 40.2173 11.5 30C11.5 19.7827 19.7827 11.5 30 11.5C30.4954 11.5 30.9863 11.5195 31.4719 11.5577C30.8873 12.1482 30.3636 12.7991 29.911 13.5002Z" fill="#13BFD9"/>
<circle cx="40" cy="20" r="10" fill="#13BFD9"/>
</svg>
